<?xml version="1.0" encoding="UTF-8"?>
<svg width="92px" height="92px" viewBox="0 0 92 92" version="1.1" xmlns="http://www.w3.org/2000/svg" xmlns:xlink="http://www.w3.org/1999/xlink">
    <!-- Generator: Sketch 55.2 (78181) - https://sketchapp.com -->
    <title>001-mail</title>
    <desc>Created with Sketch.</desc>
    <g id="Welcome" stroke="none" stroke-width="1" fill="none" fill-rule="evenodd">
        <g id="Notify_home@2x" transform="translate(-745.000000, -1012.000000)" fill-rule="nonzero">
            <g id="001-mail" transform="translate(745.000000, 1012.000000)">
                <path d="M87.3997893,72.0668073 C89.9407076,72.0668073 92,70.0064608 92,67.4665963 L92,49.0668073 C92,46.525889 89.9407076,44.4665963 87.3997893,44.4665963 L85.8663856,44.4665963 L85.8663856,33.7338251 C85.8621701,29.5014204 82.4328261,26.0720767 78.2004214,26.0668073 L48.70954,26.0668073 C48.9435025,25.0614003 49.0625915,24.0328079 49.0668073,23 L49.0668073,13.7995786 C49.0583762,6.18209297 42.8847141,0.00843108504 35.2661749,0 L13.7995786,0 C6.18209297,0.00843108504 0.00843108504,6.18209297 0,13.7995786 L0,23 C0.00316167038,27.6065342 2.30379385,31.9074413 6.13361437,34.4662757 L6.13361437,78.2004214 L1.53340366,78.2004214 C0.686079613,78.2004214 0,78.886501 0,79.7338251 L0,84.332982 C0.00526941466,88.5653867 3.43461334,91.9947306 7.66701803,92 L84.332982,92 C88.5653867,91.9947306 91.9947306,88.5653867 92,84.332982 L92,79.7338251 C92,78.886501 91.3139204,78.2004214 90.4665963,78.2004214 L85.8663856,78.2004214 L85.8663856,72.0668073 L87.3997893,72.0668073 Z M56.7338251,69 C55.886501,69 55.2004214,68.3139204 55.2004214,67.4665963 L55.2004214,51.9312683 L69.5164038,61.4763104 C71.0603465,62.5091183 73.0743217,62.5091183 74.6182644,61.4763104 L88.9331927,51.9323221 L88.9331927,67.4665963 C88.9331927,68.3139204 88.2471133,69 87.3997893,69 L56.7338251,69 Z M15.332982,36.7995786 L20.8321573,36.7995786 L34.1827805,50.1502015 C34.4694374,50.4379125 34.8593749,50.5991569 35.2661749,50.5991569 C35.4674671,50.6002107 35.6677053,50.561217 35.8531891,50.4832296 C36.4265029,50.2461051 36.7995786,49.6864918 36.7995786,49.0668073 L36.7995786,36.7142136 C38.4678793,36.5287298 40.0877017,36.038673 41.5789497,35.2661749 L76.6659639,35.2661749 L76.6659639,44.4665963 L56.7327713,44.4665963 C54.192907,44.4665963 52.1336144,46.525889 52.1336144,49.0668073 L52.1336144,67.4665963 C52.1336144,70.0075147 54.192907,72.0668073 56.7327713,72.0668073 L76.6659639,72.0668073 L76.6659639,78.2004214 L15.332982,78.2004214 L15.332982,36.7995786 Z M88.746655,48.3701887 L72.9194007,58.9248534 C72.4040507,59.2684202 71.7316716,59.2684202 71.2163215,58.9248534 L55.3869594,48.3701887 C55.6430537,47.8611622 56.1626192,47.5376192 56.7338251,47.5334037 L87.3997893,47.5334037 C87.9699413,47.5376192 88.4895069,47.8611622 88.746655,48.3701887 Z M78.2004214,29.1336144 C80.7402859,29.1336144 82.7995786,31.192907 82.7995786,33.7327713 L82.7995786,44.4665963 L79.7327713,44.4665963 L79.7327713,32.2004214 L45.5405059,32.2004214 C46.3688601,31.2761638 47.069694,30.2444097 47.6240377,29.1336144 L78.2004214,29.1336144 Z M3.06680732,23 L3.06680732,13.7995786 C3.07418432,7.87568725 7.87568725,3.07418432 13.7995786,3.06680732 L35.2661749,3.06680732 C41.1911198,3.07418432 45.9926227,7.87568725 46,13.7995786 L46,23 C45.9926227,28.9249451 41.1911198,33.725394 35.2661749,33.7338251 C34.4199047,33.7338251 33.7338251,34.4199047 33.7338251,35.2661749 L33.7338251,45.365561 L22.5510449,34.1827805 C22.2633339,33.8950695 21.8733963,33.7338251 21.4665963,33.7338251 L13.7995786,33.7338251 C7.87568725,33.725394 3.07418432,28.9249451 3.06680732,23 Z M9.20042142,35.9954638 C10.1910742,36.351677 11.2207204,36.5909091 12.2672287,36.7099981 L12.2672287,78.2004214 L9.20042142,78.2004214 L9.20042142,35.9954638 Z M88.9331927,84.332982 C88.9331927,86.8739003 86.8739003,88.9331927 84.332982,88.9331927 L7.66701803,88.9331927 C5.12609971,88.9331927 3.06680732,86.8739003 3.06680732,84.332982 L3.06680732,81.2661749 L88.9331927,81.2661749 L88.9331927,84.332982 Z M82.7995786,78.2004214 L79.7327713,78.2004214 L79.7327713,72.0668073 L82.7995786,72.0668073 L82.7995786,78.2004214 Z" id="Shape" fill="#4666D7"></path>
                <polygon id="Path" fill="#4666D6" points="11.2653061 11.2653061 14.0816327 11.2653061 14.0816327 14.0816327 11.2653061 14.0816327"></polygon>
                <polygon id="Path" fill="#4766D8" points="16.8979592 11.2653061 38.4897959 11.2653061 38.4897959 14.0816327 16.8979592 14.0816327"></polygon>
                <polygon id="Path" fill="#4666D6" points="11.2653061 16.8979592 14.0816327 16.8979592 14.0816327 19.7142857 11.2653061 19.7142857"></polygon>
                <polygon id="Path" fill="#4766D8" points="16.8979592 16.8979592 38.4897959 16.8979592 38.4897959 19.7142857 16.8979592 19.7142857"></polygon>
                <polygon id="Path" fill="#4766D8" points="11.2653061 23.4693878 14.0816327 23.4693878 14.0816327 26.2857143 11.2653061 26.2857143"></polygon>
                <polygon id="Path" fill="#4766D8" points="16.8979592 23.4693878 38.4897959 23.4693878 38.4897959 26.2857143 16.8979592 26.2857143"></polygon>
            </g>
        </g>
    </g>
</svg>