<?xml version="1.0" encoding="UTF-8"?>
<svg width="91px" height="78px" viewBox="0 0 91 78" version="1.1" xmlns="http://www.w3.org/2000/svg" xmlns:xlink="http://www.w3.org/1999/xlink">
    <!-- Generator: Sketch 55.2 (78181) - https://sketchapp.com -->
    <title>multi-task_icon@2x</title>
    <desc>Created with Sketch.</desc>
    <g id="Welcome" stroke="none" stroke-width="1" fill="none" fill-rule="evenodd">
        <g id="Notify_home@2x" transform="translate(-1193.000000, -1022.000000)">
            <g id="multi-task_icon@2x" transform="translate(1192.000000, 1015.000000)">
                <rect id="Rectangle" fill-opacity="0" fill="#D8D8D8" x="0" y="0" width="92" height="92"></rect>
                <g id="002-multitask" transform="translate(1.000000, 7.000000)" fill="#4666D5" fill-rule="nonzero">
                    <path d="M44.4578441,50.7586207 C43.592735,50.7586207 42.8850575,50.0499395 42.8850575,49.1724138 C42.8850575,48.2956627 43.5766862,47.5862069 44.4410311,47.5862069 L44.4578441,47.5862069 C45.322189,47.5862069 46.0229885,48.2956627 46.0229885,49.1724138 C46.0229885,50.0499395 45.322189,50.7586207 44.4578441,50.7586207 Z" id="Path"></path>
                    <path d="M44.4578441,58.1609195 C43.592735,58.1609195 42.8850575,57.4522384 42.8850575,56.5747126 C42.8850575,55.6979616 43.5766862,54.9885057 44.4410311,54.9885057 L44.4578441,54.9885057 C45.322189,54.9885057 46.0229885,55.6979616 46.0229885,56.5747126 C46.0229885,57.4522384 45.322189,58.1609195 44.4578441,58.1609195 Z" id="Path"></path>
                    <path d="M44.4578441,65.5632184 C43.592735,65.5632184 42.8850575,64.8545372 42.8850575,63.9770115 C42.8850575,63.1002604 43.5766862,62.3908046 44.4410311,62.3908046 L44.4578441,62.3908046 C45.322189,62.3908046 46.0229885,63.1002604 46.0229885,63.9770115 C46.0229885,64.8545372 45.322189,65.5632184 44.4578441,65.5632184 Z" id="Path"></path>
                    <path d="M44.4578441,72.9655172 C43.592735,72.9655172 42.8850575,72.2568361 42.8850575,71.3793103 C42.8850575,70.5025593 43.5766862,69.7931034 44.4410311,69.7931034 L44.4578441,69.7931034 C45.322189,69.7931034 46.0229885,70.5025593 46.0229885,71.3793103 C46.0229885,72.2568361 45.322189,72.9655172 44.4578441,72.9655172 Z" id="Path"></path>
                    <path d="M78.9750855,61.3333333 C78.1099764,61.3333333 77.4022989,60.6246522 77.4022989,59.7471264 C77.4022989,58.8703754 78.0939276,58.1609195 78.9582725,58.1609195 L78.9750855,58.1609195 C79.8394304,58.1609195 80.5402299,58.8703754 80.5402299,59.7471264 C80.5402299,60.6246522 79.8394304,61.3333333 78.9750855,61.3333333 Z" id="Path"></path>
                    <path d="M44.9770115,39.1264368 C36.9022529,39.1264368 30.3333333,32.6578277 30.3333333,24.7063741 C30.3333333,23.9093277 30.9875797,23.2643678 31.7977011,23.2643678 C32.6078226,23.2643678 33.262069,23.9093277 33.262069,24.7063741 C33.262069,31.0672553 38.5174907,36.2424242 44.9770115,36.2424242 C51.4365323,36.2424242 56.691954,31.0672553 56.691954,24.7063741 C56.691954,23.9093277 57.3462004,23.2643678 58.1563218,23.2643678 C58.9664432,23.2643678 59.6206897,23.9093277 59.6206897,24.7063741 C59.6206897,32.6578277 53.0517701,39.1264368 44.9770115,39.1264368 Z" id="Path"></path>
                    <path d="M32.9482759,26.4367816 C32.0802886,26.4367816 31.3793103,25.8068428 31.3793103,25.0268199 L31.3793103,15.1570881 C31.3793103,14.3777538 32.0802886,13.7471264 32.9482759,13.7471264 C33.8162631,13.7471264 34.5172414,14.3777538 34.5172414,15.1570881 L34.5172414,25.0268199 C34.5172414,25.8068428 33.8162631,26.4367816 32.9482759,26.4367816 Z" id="Path"></path>
                    <path d="M58.0517241,26.4367816 C57.1837369,26.4367816 56.4827586,25.8069111 56.4827586,25.0269729 L56.4827586,15.1569352 C56.4827586,14.3776854 57.1837369,13.7471264 58.0517241,13.7471264 C58.9197114,13.7471264 59.6206897,14.3776854 59.6206897,15.1569352 L59.6206897,25.0269729 C59.6206897,25.8069111 58.9197114,26.4367816 58.0517241,26.4367816 Z" id="Path"></path>
                    <path d="M14.016092,68.7356322 C13.2059705,68.7356322 12.5517241,68.0741964 12.5517241,67.2551724 C12.5517241,66.4368714 13.2059705,65.7747126 14.016092,65.7747126 C19.6669215,65.7747126 24.2666667,61.1251437 24.2666667,55.4114943 C24.2666667,54.5931932 24.9209131,53.9310345 25.7310345,53.9310345 C26.5411559,53.9310345 27.1954023,54.5931932 27.1954023,55.4114943 C27.1954023,62.7595772 21.2835893,68.7356322 14.016092,68.7356322 Z" id="Path"></path>
                    <path d="M26.5297806,53.9310345 C25.7407013,53.9310345 25.1034483,53.2866931 25.1034483,52.4888362 C25.1034483,44.5370278 31.5017465,38.0689655 39.3667712,38.0689655 C40.1558505,38.0689655 40.7931034,38.7133071 40.7931034,39.5111638 C40.7931034,40.3083164 40.1558505,40.9533622 39.3667712,40.9533622 C33.0750301,40.9533622 27.9561129,46.127812 27.9561129,52.4888362 C27.9561129,53.2866931 27.3188599,53.9310345 26.5297806,53.9310345 Z" id="Path"></path>
                    <path d="M14.016092,76.137931 C13.2059705,76.137931 12.5517241,75.4764953 12.5517241,74.6574713 C12.5517241,73.8391703 13.2059705,73.1770115 14.016092,73.1770115 C23.7060884,73.1770115 31.5885057,65.2079741 31.5885057,55.4114943 C31.5885057,54.5931932 32.2427522,53.9310345 33.0528736,53.9310345 C33.862995,53.9310345 34.5172414,54.5931932 34.5172414,55.4114943 C34.5172414,66.8409618 25.3213262,76.137931 14.016092,76.137931 Z" id="Path"></path>
                    <path d="M13.2490421,76.137931 C10.5571495,76.137931 8.36781609,73.7664396 8.36781609,70.8505747 C8.36781609,67.9354475 10.5571495,65.5632184 13.2490421,65.5632184 C14.0205863,65.5632184 14.6436782,66.2388906 14.6436782,67.0738916 C14.6436782,67.9096304 14.0205863,68.5845649 13.2490421,68.5845649 C12.0954711,68.5845649 11.1570881,69.6017614 11.1570881,70.8505747 C11.1570881,72.1001258 12.0954711,73.1165846 13.2490421,73.1165846 C14.0205863,73.1165846 14.6436782,73.7922568 14.6436782,74.6272578 C14.6436782,75.4629966 14.0205863,76.137931 13.2490421,76.137931 Z" id="Path"></path>
                    <path d="M25.6264368,57.1034483 C24.7584496,57.1034483 24.0574713,56.3947671 24.0574713,55.5172414 L24.0574713,52.3448276 C24.0574713,51.4680765 24.7584496,50.7586207 25.6264368,50.7586207 C26.494424,50.7586207 27.1954023,51.4680765 27.1954023,52.3448276 L27.1954023,55.5172414 C27.1954023,56.3947671 26.494424,57.1034483 25.6264368,57.1034483 Z" id="Path"></path>
                    <path d="M32.9482759,77.1954023 C32.0802886,77.1954023 31.3793103,76.5457779 31.3793103,75.7413793 L31.3793103,55.3850575 C31.3793103,54.581369 32.0802886,53.9310345 32.9482759,53.9310345 C33.8162631,53.9310345 34.5172414,54.581369 34.5172414,55.3850575 L34.5172414,75.7413793 C34.5172414,76.5457779 33.8162631,77.1954023 32.9482759,77.1954023 Z" id="Path"></path>
                    <path d="M14.4344828,76.137931 L13.8068966,76.137931 C13.1125068,76.137931 12.5517241,75.4292499 12.5517241,74.5517241 C12.5517241,73.6749731 13.1125068,72.9655172 13.8068966,72.9655172 L14.4344828,72.9655172 C15.1288725,72.9655172 15.6896552,73.6749731 15.6896552,74.5517241 C15.6896552,75.4292499 15.1288725,76.137931 14.4344828,76.137931 Z" id="Path"></path>
                    <path d="M14.4344828,68.7356322 L13.8068966,68.7356322 C13.1125068,68.7356322 12.5517241,68.026951 12.5517241,67.1494253 C12.5517241,66.2726742 13.1125068,65.5632184 13.8068966,65.5632184 L14.4344828,65.5632184 C15.1288725,65.5632184 15.6896552,66.2726742 15.6896552,67.1494253 C15.6896552,68.026951 15.1288725,68.7356322 14.4344828,68.7356322 Z" id="Path"></path>
                    <path d="M76.983908,68.7356322 C69.7164107,68.7356322 63.8045977,62.7595772 63.8045977,55.4114943 C63.8045977,54.5931932 64.4588441,53.9310345 65.2689655,53.9310345 C66.0790869,53.9310345 66.7333333,54.5931932 66.7333333,55.4114943 C66.7333333,61.1251437 71.3330785,65.7747126 76.983908,65.7747126 C77.7940295,65.7747126 78.4482759,66.4368714 78.4482759,67.2551724 C78.4482759,68.0741964 77.7940295,68.7356322 76.983908,68.7356322 Z" id="Path"></path>
                    <path d="M64.4702194,53.9310345 C63.6811401,53.9310345 63.0438871,53.2866931 63.0438871,52.4888362 C63.0438871,46.127812 57.9249699,40.9533622 51.6332288,40.9533622 C50.8441495,40.9533622 50.2068966,40.3083164 50.2068966,39.5111638 C50.2068966,38.7133071 50.8441495,38.0689655 51.6332288,38.0689655 C59.4982535,38.0689655 65.8965517,44.5370278 65.8965517,52.4888362 C65.8965517,53.2866931 65.2592987,53.9310345 64.4702194,53.9310345 Z" id="Path"></path>
                    <path d="M76.983908,76.137931 C65.6786738,76.137931 56.4827586,66.8409618 56.4827586,55.4114943 C56.4827586,54.5931932 57.137005,53.9310345 57.9471264,53.9310345 C58.7572478,53.9310345 59.4114943,54.5931932 59.4114943,55.4114943 C59.4114943,65.2079741 67.2939116,73.1770115 76.983908,73.1770115 C77.7940295,73.1770115 78.4482759,73.8391703 78.4482759,74.6574713 C78.4482759,75.4764953 77.7940295,76.137931 76.983908,76.137931 Z" id="Path"></path>
                    <path d="M77.7509579,76.137931 C76.9794137,76.137931 76.3563218,75.4629966 76.3563218,74.6272578 C76.3563218,73.7922568 76.9794137,73.1165846 77.7509579,73.1165846 C78.9045289,73.1165846 79.8429119,72.1001258 79.8429119,70.8505747 C79.8429119,69.6017614 78.9045289,68.5845649 77.7509579,68.5845649 C76.9794137,68.5845649 76.3563218,67.9096304 76.3563218,67.0738916 C76.3563218,66.2388906 76.9794137,65.5632184 77.7509579,65.5632184 C80.4428505,65.5632184 82.6321839,67.9354475 82.6321839,70.8505747 C82.6321839,73.7664396 80.4428505,76.137931 77.7509579,76.137931 Z" id="Path"></path>
                    <path d="M65.3735632,57.1034483 C64.505576,57.1034483 63.8045977,56.3947671 63.8045977,55.5172414 L63.8045977,52.3448276 C63.8045977,51.4680765 64.505576,50.7586207 65.3735632,50.7586207 C66.2415504,50.7586207 66.9425287,51.4680765 66.9425287,52.3448276 L66.9425287,55.5172414 C66.9425287,56.3947671 66.2415504,57.1034483 65.3735632,57.1034483 Z" id="Path"></path>
                    <path d="M58.0517241,77.1954023 C57.1837369,77.1954023 56.4827586,76.5457779 56.4827586,75.7413793 L56.4827586,55.3850575 C56.4827586,54.581369 57.1837369,53.9310345 58.0517241,53.9310345 C58.9197114,53.9310345 59.6206897,54.581369 59.6206897,55.3850575 L59.6206897,75.7413793 C59.6206897,76.5457779 58.9197114,77.1954023 58.0517241,77.1954023 Z" id="Path"></path>
                    <path d="M77.1931034,76.137931 L76.5655172,76.137931 C75.8711275,76.137931 75.3103448,75.4292499 75.3103448,74.5517241 C75.3103448,73.6749731 75.8711275,72.9655172 76.5655172,72.9655172 L77.1931034,72.9655172 C77.8874932,72.9655172 78.4482759,73.6749731 78.4482759,74.5517241 C78.4482759,75.4292499 77.8874932,76.137931 77.1931034,76.137931 Z" id="Path"></path>
                    <path d="M77.1931034,68.7356322 L76.5655172,68.7356322 C75.8711275,68.7356322 75.3103448,68.026951 75.3103448,67.1494253 C75.3103448,66.2726742 75.8711275,65.5632184 76.5655172,65.5632184 L77.1931034,65.5632184 C77.8874932,65.5632184 78.4482759,66.2726742 78.4482759,67.1494253 C78.4482759,68.026951 77.8874932,68.7356322 77.1931034,68.7356322 Z" id="Path"></path>
                    <path d="M58.0517241,77.1954023 C57.1837369,77.1954023 56.4827586,76.5457779 56.4827586,75.7413793 L56.4827586,55.3850575 C56.4827586,54.581369 57.1837369,53.9310345 58.0517241,53.9310345 C58.9197114,53.9310345 59.6206897,54.581369 59.6206897,55.3850575 L59.6206897,75.7413793 C59.6206897,76.5457779 58.9197114,77.1954023 58.0517241,77.1954023 Z" id="Path"></path>
                    <path d="M47.5922412,44.4137931 C47.1908802,44.4137931 46.7887532,44.2588854 46.4831367,43.9490699 C45.8696058,43.3294389 45.8696058,42.3264112 46.4831367,41.7067802 L49.6204933,38.5342696 C50.2340241,37.9138642 51.2251716,37.9138642 51.8387024,38.5342696 C52.4522333,39.1539006 52.4522333,40.1569283 51.8387024,40.7765593 L48.7013458,43.9490699 C48.3957292,44.2588854 47.9936023,44.4137931 47.5922412,44.4137931 Z" id="Path"></path>
                    <path d="M47.5893463,43.3563218 C47.3541997,43.3563218 47.1136914,43.3087968 46.8900341,43.2082364 L43.7527042,41.7976369 C42.9775631,41.4498084 42.6635238,40.6019334 43.0510943,39.904899 C43.4401967,39.2078643 44.3830808,38.9289128 45.1566901,39.274675 L48.29402,40.6852746 C49.068395,41.033103 49.3824345,41.8809781 48.9948638,42.5780126 C48.719122,43.0718602 48.1653405,43.3563218 47.5893463,43.3563218 Z" id="Path"></path>
                    <path d="M41.3186997,43.3563218 C40.7427055,43.3563218 40.188924,43.0719528 39.9131821,42.5768888 C39.5256115,41.8800812 39.839651,41.0324822 40.614026,40.684767 L43.7513559,39.2746267 C44.5249652,38.9289771 45.4678493,39.2078379 45.8569517,39.9046455 C46.2445222,40.6014531 45.9304829,41.4490521 45.1553418,41.7967673 L42.0180119,43.2069076 C41.7943546,43.3088123 41.5538463,43.3563218 41.3186997,43.3563218 L41.3186997,43.3563218 Z" id="Path"></path>
                    <path d="M42.3617818,44.4137931 C41.9604207,44.4137931 41.5582937,44.2588854 41.2526772,43.9490699 L38.1153206,40.7765593 C37.5017897,40.1569283 37.5017897,39.1539006 38.1153206,38.5342696 C38.7288514,37.9138642 39.7199989,37.9138642 40.3335297,38.5342696 L43.4708863,41.7067802 C44.0844172,42.3264112 44.0844172,43.3294389 43.4708863,43.9490699 C43.1652698,44.2588854 42.7631428,44.4137931 42.3617818,44.4137931 Z" id="Path"></path>
                    <path d="M40.2701149,41.2413793 C39.4021277,41.2413793 38.7011494,40.5714384 38.7011494,39.7418829 L38.7011494,35.3385768 C38.7011494,34.5090215 39.4021277,33.8390805 40.2701149,33.8390805 C41.1381022,33.8390805 41.8390805,34.5090215 41.8390805,35.3385768 L41.8390805,39.7418829 C41.8390805,40.5714384 41.1381022,41.2413793 40.2701149,41.2413793 Z" id="Path"></path>
                    <path d="M50.7298851,41.2413793 C49.8618978,41.2413793 49.1609195,40.5714384 49.1609195,39.7418829 L49.1609195,35.3385768 C49.1609195,34.5090215 49.8618978,33.8390805 50.7298851,33.8390805 C51.5978723,33.8390805 52.2988506,34.5090215 52.2988506,35.3385768 L52.2988506,39.7418829 C52.2988506,40.5714384 51.5978723,41.2413793 50.7298851,41.2413793 Z" id="Path"></path>
                    <path d="M66.2452107,40.183908 C65.4736665,40.183908 64.8505747,39.5539692 64.8505747,38.7739464 C64.8505747,37.9946121 65.4736665,37.3639847 66.2452107,37.3639847 C70.8601757,37.3639847 74.6130268,33.5698934 74.6130268,28.9042146 C74.6130268,28.1248803 75.2361186,27.4942529 76.0076628,27.4942529 C76.779207,27.4942529 77.4022989,28.1248803 77.4022989,28.9042146 C77.4022989,35.1237429 72.3971353,40.183908 66.2452107,40.183908 Z" id="Path"></path>
                    <path d="M66.2701149,47.5862069 C65.4847932,47.5862069 64.8505747,46.9450192 64.8505747,46.1510673 C64.8505747,45.3578163 65.4847932,44.7159278 66.2701149,44.7159278 C74.8795432,44.7159278 81.8850575,37.6341307 81.8850575,28.9293924 C81.8850575,28.1361415 82.5192759,27.4942529 83.3045977,27.4942529 C84.0899195,27.4942529 84.7241379,28.1361415 84.7241379,28.9293924 C84.7241379,39.2171288 76.4453349,47.5862069 66.2701149,47.5862069 Z" id="Path"></path>
                    <path d="M84.2758621,30.6666667 C83.4492076,30.6666667 82.7816092,30.0367279 82.7816092,29.256705 C82.7816092,28.0911459 81.7761989,27.1417625 80.5402299,27.1417625 C79.3042609,27.1417625 78.2988506,28.0911459 78.2988506,29.256705 C78.2988506,30.0367279 77.6312522,30.6666667 76.8045977,30.6666667 C75.9779432,30.6666667 75.3103448,30.0367279 75.3103448,29.256705 C75.3103448,26.5359195 77.6560592,24.3218391 80.5402299,24.3218391 C83.4244005,24.3218391 85.7701149,26.5359195 85.7701149,29.256705 C85.7701149,30.0367279 85.1025166,30.6666667 84.2758621,30.6666667 Z" id="Path"></path>
                    <path d="M84.2011494,30.6666667 C83.3331622,30.6666667 82.6321839,30.0997217 82.6321839,29.3977011 L82.6321839,28.7632184 C82.6321839,28.0618175 83.3331622,27.4942529 84.2011494,27.4942529 C85.0691366,27.4942529 85.7701149,28.0618175 85.7701149,28.7632184 L85.7701149,29.3977011 C85.7701149,30.0997217 85.0691366,30.6666667 84.2011494,30.6666667 Z" id="Path"></path>
                    <path d="M76.8793103,30.6666667 C76.0113231,30.6666667 75.3103448,30.0997217 75.3103448,29.3977011 L75.3103448,28.7632184 C75.3103448,28.0618175 76.0113231,27.4942529 76.8793103,27.4942529 C77.7472976,27.4942529 78.4482759,28.0618175 78.4482759,28.7632184 L78.4482759,29.3977011 C78.4482759,30.0997217 77.7472976,30.6666667 76.8793103,30.6666667 Z" id="Path"></path>
                    <path d="M66.5402299,41.2413793 L50.6091954,41.2413793 C49.8079764,41.2413793 49.1609195,40.5319235 49.1609195,39.6551724 C49.1609195,38.7776469 49.8079764,38.0689655 50.6091954,38.0689655 L66.5402299,38.0689655 C67.3414489,38.0689655 67.9885057,38.7776469 67.9885057,39.6551724 C67.9885057,40.5319235 67.3414489,41.2413793 66.5402299,41.2413793 Z" id="Path"></path>
                    <path d="M66.3936472,48.6436782 L63.3075023,48.6436782 C62.4259691,48.6436782 61.7126437,47.934997 61.7126437,47.0574713 C61.7126437,46.1807202 62.4259691,45.4712644 63.3075023,45.4712644 L66.3936472,45.4712644 C67.275959,45.4712644 67.9885057,46.1807202 67.9885057,47.0574713 C67.9885057,47.934997 67.275959,48.6436782 66.3936472,48.6436782 Z" id="Path"></path>
                    <path d="M24.7547893,40.183908 C18.6028647,40.183908 13.5977011,35.1237429 13.5977011,28.9042146 C13.5977011,28.1248803 14.220793,27.4942529 14.9923372,27.4942529 C15.7638814,27.4942529 16.3869732,28.1248803 16.3869732,28.9042146 C16.3869732,33.5698934 20.1398243,37.3639847 24.7547893,37.3639847 C25.5263335,37.3639847 26.1494253,37.9946121 26.1494253,38.7739464 C26.1494253,39.5539692 25.5263335,40.183908 24.7547893,40.183908 Z" id="Path"></path>
                    <path d="M24.7298851,47.5862069 C14.5546651,47.5862069 6.27586207,39.2171288 6.27586207,28.9293924 C6.27586207,28.1361415 6.91008053,27.4942529 7.6954023,27.4942529 C8.48072407,27.4942529 9.11494253,28.1361415 9.11494253,28.9293924 C9.11494253,37.6341307 16.1204568,44.7159278 24.7298851,44.7159278 C25.5152068,44.7159278 26.1494253,45.3578163 26.1494253,46.1510673 C26.1494253,46.9450192 25.5152068,47.5862069 24.7298851,47.5862069 Z" id="Path"></path>
                    <path d="M14.1954023,30.6666667 C13.3687478,30.6666667 12.7011494,30.0367279 12.7011494,29.256705 C12.7011494,28.0911459 11.6957391,27.1417625 10.4597701,27.1417625 C9.22380109,27.1417625 8.2183908,28.0911459 8.2183908,29.256705 C8.2183908,30.0367279 7.55079243,30.6666667 6.72413793,30.6666667 C5.89748343,30.6666667 5.22988506,30.0367279 5.22988506,29.256705 C5.22988506,26.5359195 7.57559945,24.3218391 10.4597701,24.3218391 C13.3439408,24.3218391 15.6896552,26.5359195 15.6896552,29.256705 C15.6896552,30.0367279 15.0220568,30.6666667 14.1954023,30.6666667 Z" id="Path"></path>
                    <path d="M6.79885057,30.6666667 C5.93086335,30.6666667 5.22988506,30.0997217 5.22988506,29.3977011 L5.22988506,28.7632184 C5.22988506,28.0618175 5.93086335,27.4942529 6.79885057,27.4942529 C7.6668378,27.4942529 8.36781609,28.0618175 8.36781609,28.7632184 L8.36781609,29.3977011 C8.36781609,30.0997217 7.6668378,30.6666667 6.79885057,30.6666667 Z" id="Path"></path>
                    <path d="M14.1206897,30.6666667 C13.2527024,30.6666667 12.5517241,30.0997217 12.5517241,29.3977011 L12.5517241,28.7632184 C12.5517241,28.0618175 13.2527024,27.4942529 14.1206897,27.4942529 C14.9886769,27.4942529 15.6896552,28.0618175 15.6896552,28.7632184 L15.6896552,29.3977011 C15.6896552,30.0997217 14.9886769,30.6666667 14.1206897,30.6666667 Z" id="Path"></path>
                    <path d="M40.3908046,41.2413793 L24.4597701,41.2413793 C23.6585511,41.2413793 23.0114943,40.5319235 23.0114943,39.6551724 C23.0114943,38.7776469 23.6585511,38.0689655 24.4597701,38.0689655 L40.3908046,38.0689655 C41.1920236,38.0689655 41.8390805,38.7776469 41.8390805,39.6551724 C41.8390805,40.5319235 41.1920236,41.2413793 40.3908046,41.2413793 Z" id="Path"></path>
                    <path d="M27.6924977,48.6436782 L24.6063528,48.6436782 C23.724041,48.6436782 23.0114943,47.934997 23.0114943,47.0574713 C23.0114943,46.1807202 23.724041,45.4712644 24.6063528,45.4712644 L27.6924977,45.4712644 C28.5740309,45.4712644 29.2873563,46.1807202 29.2873563,47.0574713 C29.2873563,47.934997 28.5724733,48.6436782 27.6924977,48.6436782 Z" id="Path"></path>
                    <path d="M14.2514368,64.5057471 L5.62212644,64.5057471 C4.82647148,64.5057471 4.18390805,63.8443114 4.18390805,63.0252874 L4.18390805,51.1816092 C4.18390805,50.3633082 4.82647148,49.7011494 5.62212644,49.7011494 L14.2514368,49.7011494 C15.0470917,49.7011494 15.6896552,50.3633082 15.6896552,51.1816092 L15.6896552,63.0252874 C15.6896552,63.8443114 15.0470917,64.5057471 14.2514368,64.5057471 Z M7.06034483,61.5448276 L12.8132184,61.5448276 L12.8132184,52.662069 L7.06034483,52.662069 L7.06034483,61.5448276 Z" id="Shape"></path>
                    <path d="M83.2859195,64.5057471 L74.6566092,64.5057471 C73.8609542,64.5057471 73.2183908,63.8614915 73.2183908,63.0637409 L73.2183908,50.0856844 C73.2183908,49.288638 73.8609542,48.6436782 74.6566092,48.6436782 L83.2859195,48.6436782 C84.0815745,48.6436782 84.7241379,49.288638 84.7241379,50.0856844 L84.7241379,63.0637409 C84.7241379,63.8614915 84.0815745,64.5057471 83.2859195,64.5057471 Z M76.0948276,61.6217346 L81.8477011,61.6217346 L81.8477011,51.5276907 L76.0948276,51.5276907 L76.0948276,61.6217346 Z" id="Shape"></path>
                    <path d="M18.4091954,61.3333333 L14.016092,61.3333333 C13.2059705,61.3333333 12.5517241,60.7032407 12.5517241,59.9230273 L12.5517241,54.2838692 C12.5517241,53.503656 13.2059705,52.8735632 14.016092,52.8735632 L18.4091954,52.8735632 C19.2193168,52.8735632 19.8735632,53.503656 19.8735632,54.2838692 L19.8735632,59.9230273 C19.8735632,60.7032407 19.2193168,61.3333333 18.4091954,61.3333333 L18.4091954,61.3333333 Z M15.4804598,58.5127213 L16.9448276,58.5127213 L16.9448276,55.6941752 L15.4804598,55.6941752 L15.4804598,58.5127213 Z" id="Shape"></path>
                    <path d="M18.454023,23.2643678 L1.41954023,23.2643678 C0.634218458,23.2643678 0,22.6147434 0,21.8103448 L0,1.45402294 C0,0.650334455 0.634218458,0 1.41954023,0 L18.454023,0 C19.2393448,0 19.8735632,0.650334455 19.8735632,1.45402294 L19.8735632,21.8103448 C19.8735632,22.6147434 19.2393448,23.2643678 18.454023,23.2643678 Z M2.83908046,20.3563218 L17.0344828,20.3563218 L17.0344828,2.90804593 L2.83908046,2.90804593 L2.83908046,20.3563218 Z" id="Shape"></path>
                    <path d="M7.84581387,7.40229885 C7.33960016,7.40229885 6.84027887,7.17166435 6.53930766,6.74365307 L3.40246717,2.30303615 C2.92076003,1.62342365 3.1152808,0.703777795 3.83669294,0.249738804 C4.55504157,-0.205023133 5.5322409,-0.0213832511 6.01241648,0.659675328 L9.14925697,5.10029225 C9.63096411,5.77990475 9.43644334,6.6995506 8.7150312,7.15358959 C8.44775651,7.32132374 8.14372197,7.40229885 7.84581387,7.40229885 Z" id="Path"></path>
                    <path d="M13.2490421,7.40229885 L7.67049808,7.40229885 C6.89895389,7.40229885 6.27586207,6.6936177 6.27586207,5.81609195 C6.27586207,4.93934088 6.89895389,4.22988506 7.67049808,4.22988506 L13.2490421,4.22988506 C14.0205863,4.22988506 14.6436782,4.93934088 14.6436782,5.81609195 C14.6436782,6.6936177 14.0205863,7.40229885 13.2490421,7.40229885 Z" id="Path"></path>
                    <path d="M13.0737264,7.40229885 C12.7758183,7.40229885 12.4733155,7.32133545 12.204509,7.15362555 C11.4830969,6.69965219 11.2885761,5.78158514 11.7702833,5.10062502 L14.9071237,0.659204149 C15.3872993,-0.0203101116 16.3576062,-0.205369314 17.0828473,0.249326884 C17.8042594,0.703300426 17.9987802,1.62136747 17.5170731,2.30232741 L14.3802326,6.74374828 C14.0792614,7.17169769 13.5799401,7.40229885 13.0737264,7.40229885 Z" id="Path"></path>
                    <path d="M13.2490421,13.7471264 L7.67049808,13.7471264 C6.89895389,13.7471264 6.27586207,13.0384453 6.27586207,12.1609195 C6.27586207,11.2841685 6.89895389,10.5747126 7.67049808,10.5747126 L13.2490421,10.5747126 C14.0205863,10.5747126 14.6436782,11.2841685 14.6436782,12.1609195 C14.6436782,13.0384453 14.0205863,13.7471264 13.2490421,13.7471264 Z" id="Path"></path>
                    <path d="M13.2490421,17.9770115 L7.67049808,17.9770115 C6.89895389,17.9770115 6.27586207,17.2683303 6.27586207,16.3908046 C6.27586207,15.5140535 6.89895389,14.8045977 7.67049808,14.8045977 L13.2490421,14.8045977 C14.0205863,14.8045977 14.6436782,15.5140535 14.6436782,16.3908046 C14.6436782,17.2683303 14.0205863,17.9770115 13.2490421,17.9770115 Z" id="Path"></path>
                    <path d="M89.5617816,20.091954 L69.4267241,20.091954 C68.6310692,20.091954 67.9885057,19.4476984 67.9885057,18.6499478 L67.9885057,5.67189133 C67.9885057,4.87484489 68.6310692,4.22988506 69.4267241,4.22988506 L89.5617816,4.22988506 C90.3574366,4.22988506 91,4.87484489 91,5.67189133 L91,18.6499478 C91,19.4476984 90.3574366,20.091954 89.5617816,20.091954 Z M70.8649425,17.2079415 L88.1235632,17.2079415 L88.1235632,7.1138976 L70.8649425,7.1138976 L70.8649425,17.2079415 Z" id="Shape"></path>
                    <path d="M79.1446138,15.862069 C78.8238944,15.862069 78.5004514,15.7477519 78.2382921,15.5120173 L68.4764383,6.78699515 C67.890836,6.26511268 67.8220618,5.34702568 68.3259522,4.73780792 C68.8264379,4.1271698 69.7075649,4.05758557 70.2904435,4.58088804 L80.0522973,13.3059101 C80.6378996,13.8277926 80.7066739,14.7458796 80.2027834,15.3550976 C79.9283676,15.6909484 79.5361502,15.862069 79.1446138,15.862069 Z" id="Path"></path>
                    <path d="M79.843308,15.862069 C79.4517793,15.862069 79.0595698,15.6909519 78.7851594,15.3536877 C78.2826408,14.7444823 78.3500519,13.826414 78.9356425,13.3045421 L88.6973024,4.5796972 C89.2842548,4.05782533 90.1626409,4.12740815 90.6631165,4.73803387 C91.165635,5.34723926 91.098224,6.26530761 90.5126333,6.78717948 L80.7509735,15.5120244 C80.4874576,15.7477542 80.1640211,15.862069 79.843308,15.862069 Z" id="Path"></path>
                    <path d="M89.5555023,20.091954 C89.2235497,20.091954 88.8887781,19.9895849 88.6174366,19.7784881 L81.0452523,13.9224615 C80.4391392,13.455124 80.3679562,12.6336271 80.8894954,12.0874461 C81.4075106,11.5393577 82.3194992,11.4783177 82.9227932,11.9469269 L90.4949775,17.8029534 C91.1010906,18.2702911 91.1722737,19.0924238 90.6507344,19.637969 C90.3667072,19.9387182 89.9607524,20.091954 89.5555023,20.091954 Z" id="Path"></path>
                    <path d="M69.4318086,20.091954 C69.0267323,20.091954 68.6209516,19.9387915 68.3370461,19.636915 C67.8171394,19.091631 67.8868831,18.2698916 68.4927362,17.8027775 L76.0673096,11.9457394 C76.6717537,11.4798963 77.5833515,11.5383652 78.0997356,12.0861914 C78.6196421,12.6314756 78.5498986,13.4532149 77.9440455,13.9203289 L70.369472,19.777367 C70.0982469,19.9896338 69.7636189,20.091954 69.4318086,20.091954 Z" id="Path"></path>
                    <path d="M57.1800766,15.862069 C56.4085324,15.862069 55.7854406,15.2320274 55.7854406,14.4518778 C55.7854406,12.1210686 53.9079936,10.2226812 51.6015326,10.2226812 C50.8299884,10.2226812 50.2068966,9.5926399 50.2068966,8.81249005 C50.2068966,8.0330289 50.8299884,7.40229885 51.6015326,7.40229885 C55.4463153,7.40229885 58.5747126,10.5642119 58.5747126,14.4518778 C58.5747126,15.2320274 57.9516208,15.862069 57.1800766,15.862069 Z" id="Path"></path>
                    <path d="M51.7758621,10.5747126 C50.9078748,10.5747126 50.2068966,9.94477384 50.2068966,9.16475096 L50.2068966,3.52490421 C50.2068966,2.74556992 50.9078748,2.11494253 51.7758621,2.11494253 C52.6438493,2.11494253 53.3448276,2.74556992 53.3448276,3.52490421 L53.3448276,9.16475096 C53.3448276,9.94477384 52.6438493,10.5747126 51.7758621,10.5747126 Z" id="Path"></path>
                    <path d="M32.8436782,15.862069 C32.0335568,15.862069 31.3793103,15.2006332 31.3793103,14.3816092 C31.3793103,7.03424928 37.2911234,1.05747126 44.5586207,1.05747126 C45.3687421,1.05747126 46.0229885,1.71963003 46.0229885,2.53793103 C46.0229885,3.35695506 45.3687421,4.0183908 44.5586207,4.0183908 C38.9077911,4.0183908 34.308046,8.6686826 34.308046,14.3816092 C34.308046,15.2006332 33.6537996,15.862069 32.8436782,15.862069 Z" id="Path"></path>
                    <path d="M58.1553295,21.1494253 C57.8743607,21.1494253 57.5883875,21.0609097 57.3367311,20.8792605 L52.9441827,17.6873123 C52.2735756,17.1985524 52.097702,16.2202629 52.5488248,15.4982839 C53.0028073,14.7778442 53.9107721,14.5884978 54.5828091,15.0726396 L58.9753575,18.2645876 C59.6459648,18.7533475 59.8218382,19.7324066 59.3707154,20.4543858 C59.088317,20.9061999 58.6250404,21.1494253 58.1553295,21.1494253 Z" id="Path"></path>
                    <path d="M45.1641527,19.0344828 C40.0367479,19.0344828 35.6711407,17.6138119 35.4895293,17.5532407 C34.7471404,17.306826 34.3437135,16.5104519 34.5890968,15.7712074 C34.8365598,15.0340279 35.639948,14.6313669 36.3837232,14.8764051 C36.4253136,14.891548 40.5122649,16.215167 45.1641527,16.215167 C49.6760194,16.215167 52.3190902,14.9638204 52.346124,14.9507425 C53.0455361,14.6127825 53.8988328,14.8991193 54.2440333,15.5950002 C54.5892336,16.2915694 54.3050326,17.1319953 53.6063136,17.478215 C53.475997,17.5408512 50.3969199,19.0344828 45.1641527,19.0344828 Z" id="Path"></path>
                    <path d="M32.8450474,21.1494253 C32.3754171,21.1494253 31.91222,20.9061824 31.6298701,20.4558751 C31.1773951,19.733844 31.354668,18.7547143 32.0251602,18.2659191 L36.4169546,15.0737406 C37.0903058,14.5880245 37.9981149,14.7773846 38.4505898,15.4994157 C38.9030646,16.221447 38.7257917,17.1998068 38.0552997,17.688602 L33.6635053,20.8815502 C33.4118921,21.0624429 33.125968,21.1494253 32.8450474,21.1494253 Z" id="Path"></path>
                    <path d="M51.9066092,4.22988506 L43.2772989,4.22988506 C42.4816439,4.22988506 41.8390805,3.5212039 41.8390805,2.64367816 C41.8390805,1.76692708 42.4816439,1.05747126 43.2772989,1.05747126 L51.9066092,1.05747126 C52.7022641,1.05747126 53.3448276,1.76692708 53.3448276,2.64367816 C53.3448276,3.5212039 52.7022641,4.22988506 51.9066092,4.22988506 Z" id="Path"></path>
                </g>
            </g>
        </g>
    </g>
</svg>