<?xml version="1.0" encoding="UTF-8"?>
<svg width="97px" height="97px" viewBox="0 0 97 97" version="1.1" xmlns="http://www.w3.org/2000/svg" xmlns:xlink="http://www.w3.org/1999/xlink">
    <!-- Generator: Sketch 55.2 (78181) - https://sketchapp.com -->
    <title>003-gear</title>
    <desc>Created with Sketch.</desc>
    <g id="Welcome" stroke="none" stroke-width="1" fill="none" fill-rule="evenodd">
        <g id="Notify_home@2x" transform="translate(-262.000000, -1018.000000)" fill="#4666D6" fill-rule="nonzero">
            <g id="003-gear" transform="translate(262.000000, 1018.000000)">
                <path d="M92.8436117,33.9119438 L84.6932044,32.2844226 C84.153431,30.5667157 83.4611749,28.8983736 82.6270834,27.3046484 L87.2380677,20.3977463 C88.6003349,18.3570793 88.3288321,15.6177098 86.5920128,13.8831049 L83.0974601,10.3933896 C81.3608309,8.65897458 78.6174739,8.38727803 76.573788,9.748229 L69.6573115,14.3528304 C68.0611869,13.5198935 66.390342,12.8285957 64.6706342,12.2895695 L63.0404766,4.15044477 C62.5588824,1.74542721 60.4269771,0 57.9710937,0 L53.0287162,0 C50.5730229,0 48.4407373,1.74542721 47.9591431,4.15044477 L46.3289856,12.2895695 C44.6090877,12.8285957 42.9382428,13.5198935 41.3423083,14.3528304 L34.4258318,9.748229 C32.382336,8.38784763 29.6385987,8.65878471 27.9021597,10.3930099 L24.4074168,13.8831049 C22.6709778,15.61733 22.399475,18.3568894 23.7617421,20.3973665 L28.3727265,27.3042686 C27.5386349,28.8981837 26.8463789,30.5665258 26.3066055,32.2840429 L18.1561982,33.9117539 C15.7480369,34.3928713 14,36.5218255 14,38.9744991 L14,43.9096551 C14,46.3621389 15.7478467,48.4914728 18.1561982,48.9724003 L23.4332009,50.02615 C24.2657715,50.1920919 25.0753365,49.6532555 25.2416985,48.8220274 C25.4080605,47.9907993 24.8682871,47.182165 24.0359067,47.0160333 L18.7589039,45.9622836 C17.7827868,45.7676722 17.0741797,44.904167 17.0741797,43.9100349 L17.0741797,38.9748788 C17.0741797,37.9807467 17.7827868,37.1172415 18.7589039,36.9224402 L27.8175527,35.1132184 C28.3848947,34.9998691 28.8404414,34.5779895 28.9963463,34.0214958 C29.5866938,31.9139964 30.4308621,29.8801645 31.5047051,27.9762002 C31.7887563,27.4726787 31.7653706,26.8523904 31.4444345,26.3714628 L26.3195342,18.6946589 C25.7672123,17.8674179 25.8774866,16.7565189 26.5815306,16.0538292 L30.0762734,12.5637343 C30.7803174,11.8606649 31.8923761,11.750923 32.7207638,12.3024803 L40.4082094,17.4200964 C40.8896135,17.7407781 41.5107617,17.7639416 42.0151713,17.4804734 C43.9219651,16.4079271 45.9586162,15.5653071 48.068847,14.9757768 C48.6261121,14.8200877 49.0483864,14.3653615 49.162083,13.798615 L50.9738127,4.75250609 C51.1690742,3.77755028 52.0333961,3.06992413 53.0289063,3.06992413 L57.9712838,3.06992413 C58.966794,3.06992413 59.8313061,3.77755028 60.0263774,4.75250609 L61.8381071,13.798615 C61.9516136,14.3653615 62.374078,14.8200877 62.9313432,14.9757768 C65.0413838,15.5653071 67.0782251,16.4079271 68.9850188,17.4804734 C69.4894284,17.7639416 70.1103865,17.7407781 70.5919807,17.4200964 L78.2796164,12.3022904 C79.1080042,11.7507332 80.220253,11.860475 80.9241069,12.5639241 L84.4186596,16.0536394 C85.1228937,16.7568986 85.2327877,17.8674179 84.680656,18.6946589 L79.5557556,26.3714628 C79.2346294,26.8523904 79.2112437,27.4726787 79.495485,27.9762002 C80.569328,29.8801645 81.4133062,31.9139964 82.0038438,34.0214958 C82.1597488,34.5779895 82.6152955,34.9996793 83.1826374,35.1132184 L92.2412862,36.9224402 C93.2175935,37.1172415 93.9260104,37.9807467 93.9260104,38.9748788 L93.9260104,43.9100349 C93.9260104,44.904167 93.2174034,45.7676722 92.2412862,45.9624735 L83.1826374,47.7716953 C82.6152955,47.8850446 82.1597488,48.3069242 82.0038438,48.8632281 C81.4134963,50.9703477 80.5695181,53.0041796 79.495485,54.9085236 C79.2114338,55.412235 79.2348195,56.0323335 79.5557556,56.513261 L84.680656,64.1900649 C85.2329778,65.0173059 85.1227036,66.1282049 84.4186596,66.8308946 L80.9239167,70.3209896 C80.2198727,71.024059 79.1080042,71.1338008 78.2794263,70.5822435 L70.5919807,65.4646274 C69.8858453,64.9943323 68.9314027,65.1847667 68.4606458,65.8903043 C67.9896987,66.5954622 68.1807774,67.5485836 68.8869128,68.0186889 L76.5743584,73.1364948 C77.4455249,73.7165318 78.4435068,74 79.4371157,74 C80.7737156,74 82.1017597,73.4866056 83.0978403,72.4917139 L86.5925832,69.001619 C88.3290222,67.2673938 88.600525,64.5278344 87.2382579,62.4873573 L82.6272735,55.5804552 C83.4613651,53.9863503 84.1536211,52.3180082 84.6933945,50.6006809 L92.8438018,48.9731598 C95.2519631,48.4920424 97,46.3628984 97,43.9104146 L97,38.9752586 C97,36.5222052 95.2519631,34.3932511 92.8436117,33.9119438 Z" id="Path"></path>
                <path d="M60.4154078,53.2954313 L46.1999623,53.2954313 C45.3587504,53.2954313 44.676926,53.9777406 44.676926,54.819972 C44.676926,55.6622034 45.3589388,56.3445127 46.1999623,56.3445127 L60.4154078,56.3445127 C61.8152297,56.3445127 62.9539273,57.4843351 62.9539273,58.8855396 L62.9539273,60.9183234 C62.9539273,62.3195279 61.8152297,63.4593503 60.4154078,63.4593503 L46.1999623,63.4593503 C45.3587504,63.4593503 44.676926,64.1418482 44.676926,64.983891 C44.676926,65.8261224 45.3589388,66.5084317 46.1999623,66.5084317 L60.4154078,66.5084317 C61.8152297,66.5084317 62.9539273,67.648254 62.9539273,69.0494586 L62.9539273,71.0822424 C62.9539273,72.4834469 61.8152297,73.6232693 60.4154078,73.6232693 L46.1999623,73.6232693 C45.3587504,73.6232693 44.676926,74.3055785 44.676926,75.14781 C44.676926,75.9900414 45.3589388,76.6723507 46.1999623,76.6723507 L60.4154078,76.6723507 C61.8152297,76.6723507 62.9539273,77.812173 62.9539273,79.2133775 L62.9539273,81.2461613 C62.9539273,82.6473659 61.8152297,83.7871882 60.4154078,83.7871882 L46.1999623,83.7871882 C45.3587504,83.7871882 44.676926,84.4694975 44.676926,85.3117289 C44.676926,86.1539603 45.3589388,86.8362696 46.1999623,86.8362696 L60.4154078,86.8362696 C61.8152297,86.8362696 62.9539273,87.976092 62.9539273,89.3772965 L62.9539273,91.4100803 C62.9539273,92.8112848 61.8152297,93.9511072 60.4154078,93.9511072 L32.8259172,93.9511072 C31.3857774,93.9511072 30.0304183,93.3910026 29.0096598,92.3745164 C27.3982633,90.7696374 25.2712123,89.8855396 23.0203816,89.8855396 L19.2922961,89.8855396 L19.2922961,73.1152147 C19.2922961,72.2729833 18.6102833,71.590674 17.7692598,71.590674 C16.9282362,71.590674 16.2462234,72.2729833 16.2462234,73.1152147 L16.2462234,93.4428641 C16.2462234,93.723105 16.0184462,93.9511072 15.7384818,93.9511072 L11.1691844,93.9511072 L11.1691844,73.1148376 C11.1691844,72.2726062 10.4871716,71.5902969 9.64614805,71.5902969 C8.80512452,71.5902969 8.1231117,72.2726062 8.1231117,73.1148376 L8.1231117,93.95073 L3.55381427,93.95073 C3.2740383,93.95073 3.04607269,93.7229164 3.04607269,93.4424869 L3.04607269,58.8855396 C3.04607269,58.6052987 3.2738499,58.3772965 3.55381427,58.3772965 L15.7384818,58.3772965 C16.0182578,58.3772965 16.2462234,58.6051101 16.2462234,58.8855396 L16.2462234,67.0166748 C16.2462234,67.8589062 16.9282362,68.5412155 17.7692598,68.5412155 C18.6102833,68.5412155 19.2922961,67.8589062 19.2922961,67.0166748 L19.2922961,62.4428641 L22.9646148,62.4428641 C25.372007,62.4428641 27.5011304,60.906631 28.2626486,58.6205743 L28.8295482,56.9172527 C30.5862022,51.6434055 31.4767753,46.1502312 31.4767753,40.5904855 C31.4767753,39.1892809 32.6154729,38.0494586 34.0152948,38.0494586 C35.235947,38.0494586 36.3833111,38.5252646 37.2463776,39.3891836 C38.109444,40.2531026 38.5845922,41.4016 38.5845922,42.6234578 L38.5845922,58.8851624 C38.5845922,59.7272053 39.266605,60.4097031 40.1076285,60.4097031 C40.9488405,60.4097031 41.6306649,59.7273938 41.6306649,58.8851624 L41.6306649,42.6234578 C41.6306649,40.5872795 40.8386257,38.67274 39.4001816,37.232875 C37.9617374,35.7930101 36.0492755,35 34.014918,35 C30.9354982,35 28.4303258,37.5078355 28.4303258,40.5901083 C28.4303258,45.8215233 27.5923167,50.9901387 25.9394718,55.9526281 L25.3721954,57.6559496 C25.0261021,58.6950663 24.0584729,59.3934055 22.9640496,59.3934055 L19.2922961,59.3934055 L19.2922961,58.8851624 C19.2922961,56.9236647 17.6978557,55.3278379 15.7384818,55.3278379 L3.55381427,55.3278379 C1.59444045,55.3282151 0,56.9240419 0,58.8855396 L0,93.4426755 C0,95.4039847 1.59444045,97 3.55381427,97 L15.7384818,97 C17.6980441,97 19.2922961,95.4039847 19.2922961,93.4426755 L19.2922961,92.9344324 L23.0201932,92.9344324 C24.460333,92.9344324 25.8243586,93.5032121 26.8609427,94.5357282 C28.4565135,96.1247658 30.5748981,97 32.8257288,97 L60.4154078,97 C63.4948275,97 66,94.4921645 66,91.4098917 L66,89.3771079 C66,87.7769437 65.3247696,86.3316097 64.2446648,85.3115403 C65.3247696,84.291471 66,82.846137 66,81.2459727 L66,79.213189 C66,77.6130247 65.3247696,76.1676907 64.2446648,75.1476214 C65.3247696,74.127552 66,72.682218 66,71.0820538 L66,69.04927 C66,67.4491057 65.3247696,66.0037717 64.2446648,64.9837024 C65.3247696,63.963633 66,62.5182991 66,60.9181348 L66,58.885351 C66,55.8032668 63.4948275,53.2954313 60.4154078,53.2954313 Z" id="Path"></path>
                <path d="M55.9953734,49 C56.4038627,49 56.8175568,48.9685789 57.2335643,48.9036164 C61.5918111,48.2231482 64.5838648,44.1243393 63.9035634,39.766644 C63.2234548,35.4085632 59.1235259,32.4158524 54.7664357,33.0965134 C50.4081889,33.7769816 47.4161352,37.8757905 48.0964366,42.2334858 C48.7117729,46.1753822 52.1242678,48.9998072 55.9953734,49 Z M55.2472154,36.1757766 C57.9075041,35.7626765 60.4091393,37.5870253 60.8243757,40.2468271 C61.239612,42.9068216 59.413266,45.4085543 56.7533629,45.8239676 C54.0934598,46.2391882 51.591439,44.412719 51.1762027,41.7529172 C50.7609663,39.0929226 52.5873123,36.5911899 55.2472154,36.1757766 Z" id="Shape"></path>
                <path d="M69.4584727,56 C69.8425361,56 70.2256976,55.8393325 70.5121667,55.5201142 C74.8023485,50.7385735 76.7145479,44.2503018 75.758809,37.7189288 C75.2731825,34.4009052 74.097721,31.3474537 72.2643547,28.6440071 C71.7924383,27.9482304 70.8808965,27.7916037 70.2278623,28.2951567 C69.5753694,28.7987097 69.4288877,29.7709884 69.9008041,30.4673423 C71.4615918,32.7694089 72.4629709,35.3706824 72.8767997,38.1986222 C73.691108,43.7642586 72.0612286,49.2937208 68.4047786,53.3692867 C67.8478956,53.9898287 67.8681,54.9746145 68.4500581,55.568603 C68.7329193,55.8568424 69.0960568,56 69.4584727,56 Z" id="Path"></path>
                <path d="M67.6957026,27.2958659 C68.1976268,26.6236991 68.0648634,25.6679589 67.3989922,25.1613355 C62.9477758,21.772785 57.4639549,20.3835774 51.9582869,21.2527749 C45.6405399,22.2482983 40.2560582,26.0722017 37.1853202,31.744234 C36.7853493,32.4829576 37.0542373,33.4089075 37.7856499,33.8129618 C38.0155118,33.9398534 38.263673,34.0001881 38.5084731,34 C39.0425145,34 39.5601238,33.7132209 39.8342402,33.2067861 C42.4516032,28.3724641 47.0402512,25.1132563 52.4237992,24.2649874 C57.1155209,23.5249439 61.7883831,24.7084478 65.5813841,27.5958428 C66.2474421,28.102089 67.1939651,27.9682213 67.6957026,27.2958659 Z" id="Path"></path>
            </g>
        </g>
    </g>
</svg>